# xmcd
#
# Track frame offsets:
#	150
#	2349
#	16665
#	30433
#	44311
#	55987
#	72802
#	90841
#	103988
#	120031
#	133400
#	144561
#	158907
#	172823
#	186704
#	198399
#	215080
#	233148
#	246391
#	262552
#	276003
#
# Disc length: 3826 seconds
#
# Revision: 0
# Processed by: cddbd v1.5.2PL0 Copyright (c) Steve Scherf et al.
# Submitted via: audiograbber 1.83.01
#
DISCID=180ef015
DTITLE=Guest Spot - Classic Blues
DYEAR=2000
DGENRE=Blues
TTITLE0=Stimmton - 01
TTITLE1=Cry me a River - 02
TTITLE2=Fever - 03
TTITLE3=God Bless the Child - 04
TTITLE4=Hit the road Jack - 05
TTITLE5=Harlem Nocturne - 06
TTITLE6=Li'l Darlin' - 07
TTITLE7=I whish I knew how it would feel to be free - 08
TTITLE8=Round Midnight - 09
TTITLE9=Swingin' Shepherd Blues - 10
TTITLE10=Moonglow - 11
TTITLE11=Cry me a river PB - 12
TTITLE12=Fever PB - 13
TTITLE13=God bless the Child PB - 14
TTITLE14=Hit the road Jack PB - 15
TTITLE15=Harlem Nocturne PB - 16
TTITLE16=Li'l Darlin' PB - 17
TTITLE17=I whish I knew how it would feel to be free PB - 18
TTITLE18=Round Midnight PB - 19
TTITLE19=Swingin' Shepherd Blues PB - 20
TTITLE20=Moonglow PB - 21
EXTD=Tracks with and without lead melody
EXTT0=
EXTT1=
EXTT2=
EXTT3=
EXTT4=
EXTT5=
EXTT6=
EXTT7=
EXTT8=
EXTT9=
EXTT10=
EXTT11=
EXTT12=
EXTT13=
EXTT14=
EXTT15=
EXTT16=
EXTT17=
EXTT18=
EXTT19=
EXTT20=
PLAYORDER=
